<?xml version="1.0" encoding="utf-8"?>
<!-- Generator: Adobe Illustrator 18.1.0, SVG Export Plug-In . SVG Version: 6.00 Build 0)  -->
<svg version="1.1" id="Layer_1" xmlns="http://www.w3.org/2000/svg" xmlns:xlink="http://www.w3.org/1999/xlink" x="0px" y="0px"
	 viewBox="0 0 80 80" enable-background="new 0 0 80 80" xml:space="preserve">
<path fill="#1E232D" d="M18,16.4c0.1,0,0.3-0.1,0.4-0.1l1.4-1.4c0.2-0.2,0.2-0.5,0-0.7c-0.2-0.2-0.5-0.2-0.7,0l-1.4,1.4
	c-0.2,0.2-0.2,0.5,0,0.7C17.8,16.4,17.9,16.4,18,16.4z M43,61c0-1.7-1.3-3-3-3c-1.7,0-3,1.3-3,3v12.2c-5.4,0.5-10.7,2.5-15,5.8h36
	c-4.3-3.4-9.6-5.3-15-5.8V61z M24.9,13.4C25,13.4,25,13.3,24.9,13.4c0.2-0.2,0.3-0.3,0.4-0.4c0,0,0.1,0,0.1-0.1
	C29.2,9.3,34.3,7,40,7c8.8,0,16.3,5.4,19.4,13.1c0,0,0,0,0,0v0c0.6,1.5,2.4,2.3,3.9,1.6c1.4-0.6,2.2-2.2,1.8-3.6
	c0-0.1-0.1-0.2-0.1-0.3c0,0,0-0.1,0-0.1C61,7.9,51.3,1,40,1c-7.3,0-14,2.9-18.9,7.7c-0.1,0.1-0.2,0.1-0.2,0.2
	c-0.1,0.1-0.1,0.1-0.2,0.2c-1,1.2-0.9,2.9,0.2,4C22,14.3,23.8,14.3,24.9,13.4z M1,25c9.1,10.7,22.1,17.1,36,17.9V49h-6
	c-5.8,0-10.5,4.7-10.5,10.5C20.5,65.3,25.2,70,31,70c1.7,0,3-1.3,3-3s-1.3-3-3-3c-2.5,0-4.5-2-4.5-4.5s2-4.5,4.5-4.5h9
	c6.1,0,11.7-2,16.2-5.4c0,0,0.1,0,0.1-0.1c0.1,0,0.1-0.1,0.2-0.2c0,0,0.1-0.1,0.1-0.1c1.1-1,1.2-2.8,0.3-4c-1-1.3-2.9-1.6-4.2-0.6
	c0,0,0,0,0,0c0,0-0.1,0.1-0.1,0.1c-2.8,2.1-6,3.4-9.6,4v-5.9c13.9-0.8,26.9-7.3,36-17.9H1z M52,67c0-1.7-1.3-3-3-3c-1.7,0-3,1.3-3,3
	s1.3,3,3,3C50.7,70,52,68.7,52,67z"/>
</svg>
